<svg xmlns="http://www.w3.org/2000/svg" viewBox="0 0 354 257" role="img"><title>expiry</title><rect width="100%" height="100%" fill="white"/><rect x="0" y="0" width="354" height="25" rx="5" fill="#182b42" stroke="none" stroke-width="0.8"/><text x="7" y="17" text-anchor="start" fill="#ffffff" font-family="Georgia, serif" font-weight="bold" font-size="8.5">STALE EXPIRY RECORDS CANNOT DELETE A REFRESH</text><line x1="114.83742331288343" y1="103.0" x2="145.62269938650306" y2="129.0" stroke="#555555" stroke-width="0.8"/><line x1="145.62269938650306" y1="129.0" x2="143.58632076867997" y2="124.43347373544475" stroke="#555555" stroke-width="0.8"/><line x1="145.62269938650306" y1="129.0" x2="140.77978323194418" y2="127.7565519231135" stroke="#555555" stroke-width="0.8"/><line x1="239.16257668711657" y1="103.0" x2="208.37730061349694" y2="129.0" stroke="#555555" stroke-width="0.8"/><line x1="208.37730061349694" y1="129.0" x2="213.22021676805582" y2="127.7565519231135" stroke="#555555" stroke-width="0.8"/><line x1="208.37730061349694" y1="129.0" x2="210.41367923132003" y2="124.43347373544475" stroke="#555555" stroke-width="0.8"/><line x1="177.0" y1="182.0" x2="177.0" y2="203.0" stroke="#555555" stroke-width="0.8"/><line x1="177.0" y1="203.0" x2="179.17482767055614" y2="198.4977644882366" stroke="#555555" stroke-width="0.8"/><line x1="177.0" y1="203.0" x2="174.82517232944386" y2="198.4977644882366" stroke="#555555" stroke-width="0.8"/><rect x="4" y="45" width="153" height="58" rx="5" fill="#f8f9fb" stroke="#555555" stroke-width="0.8"/><text x="80.5" y="65.0" text-anchor="middle" fill="#202020" font-family="Georgia, serif" font-weight="normal" font-size="9">Popped record</text><text x="80.5" y="77.0" text-anchor="middle" fill="#202020" font-family="Georgia, serif" font-weight="normal" font-size="9">A, generation 1</text><text x="80.5" y="89.0" text-anchor="middle" fill="#202020" font-family="Georgia, serif" font-weight="normal" font-size="9">deadline 5</text><rect x="197" y="45" width="153" height="58" rx="5" fill="#dde5ed" stroke="#555555" stroke-width="0.8"/><text x="273.5" y="65.0" text-anchor="middle" fill="#202020" font-family="Georgia, serif" font-weight="normal" font-size="9">Current value</text><text x="273.5" y="77.0" text-anchor="middle" fill="#202020" font-family="Georgia, serif" font-weight="normal" font-size="9">A, generation 2</text><text x="273.5" y="89.0" text-anchor="middle" fill="#202020" font-family="Georgia, serif" font-weight="normal" font-size="9">deadline 10</text><rect x="86" y="129" width="182" height="53" rx="5" fill="#f8f9fb" stroke="#555555" stroke-width="0.8"/><text x="177.0" y="152.5" text-anchor="middle" fill="#202020" font-family="Georgia, serif" font-weight="normal" font-size="9">Compare generations</text><text x="177.0" y="164.5" text-anchor="middle" fill="#202020" font-family="Georgia, serif" font-weight="normal" font-size="9">1 != 2</text><rect x="86" y="203" width="182" height="48" rx="5" fill="#dde5ed" stroke="#555555" stroke-width="0.8"/><text x="177.0" y="224.0" text-anchor="middle" fill="#202020" font-family="Georgia, serif" font-weight="normal" font-size="9">DISCARD record</text><text x="177.0" y="236.0" text-anchor="middle" fill="#202020" font-family="Georgia, serif" font-weight="normal" font-size="9">KEEP current A</text></svg>
