<svg xmlns="http://www.w3.org/2000/svg" viewBox="0 0 354 191" role="img"><title>graph</title><rect width="100%" height="100%" fill="white"/><line x1="63.0" y1="81.8" x2="144.0" y2="45.19999999999999" stroke="#555555" stroke-width="0.8"/><line x1="144.0" y1="45.19999999999999" x2="139.00163922447425" y2="45.07197829213098" stroke="#555555" stroke-width="0.8"/><line x1="144.0" y1="45.19999999999999" x2="140.79268626812984" y2="49.03577092972938" stroke="#555555" stroke-width="0.8"/><line x1="63.0" y1="106.2" x2="144.0" y2="142.8" stroke="#555555" stroke-width="0.8"/><line x1="144.0" y1="142.8" x2="140.79268626812984" y2="138.96422907027062" stroke="#555555" stroke-width="0.8"/><line x1="144.0" y1="142.8" x2="139.00163922447425" y2="142.92802170786902" stroke="#555555" stroke-width="0.8"/><line x1="198.0" y1="44.517482517482506" x2="287.0" y2="82.48251748251748" stroke="#555555" stroke-width="0.8"/><line x1="287.0" y1="82.48251748251748" x2="283.71213142127056" y2="78.71556643306069" stroke="#555555" stroke-width="0.8"/><line x1="287.0" y1="82.48251748251748" x2="282.0054739928089" y2="82.71641909322494" stroke="#555555" stroke-width="0.8"/><line x1="198.0" y1="143.4825174825175" x2="287.0" y2="105.51748251748252" stroke="#555555" stroke-width="0.8"/><line x1="287.0" y1="105.51748251748252" x2="282.0054739928089" y2="105.28358090677506" stroke="#555555" stroke-width="0.8"/><line x1="287.0" y1="105.51748251748252" x2="283.71213142127056" y2="109.28443356693931" stroke="#555555" stroke-width="0.8"/><rect x="9" y="75" width="54" height="38" fill="#ffffff" stroke="#555555" stroke-width="0.8"/><text x="36.0" y="96.8" text-anchor="middle" fill="#202020" font-family="Georgia, serif" font-size="8.2">A</text><rect x="144" y="14" width="54" height="38" fill="#ffffff" stroke="#555555" stroke-width="0.8"/><text x="171.0" y="35.80000000000001" text-anchor="middle" fill="#202020" font-family="Georgia, serif" font-size="8.2">B</text><rect x="144" y="136" width="54" height="38" fill="#ffffff" stroke="#555555" stroke-width="0.8"/><text x="171.0" y="157.8" text-anchor="middle" fill="#202020" font-family="Georgia, serif" font-size="8.2">C</text><rect x="287" y="75" width="54" height="38" fill="#ffffff" stroke="#555555" stroke-width="0.8"/><text x="314.0" y="96.8" text-anchor="middle" fill="#202020" font-family="Georgia, serif" font-size="8.2">D</text><rect x="3" y="177" width="41.65234375" height="11" fill="#ffffff" stroke="none" stroke-width="0.8"/><text x="5" y="186" text-anchor="start" fill="#202020" font-family="Georgia, serif" font-size="8">Distance 0</text><rect x="142" y="177" width="40.1796875" height="11" fill="#ffffff" stroke="none" stroke-width="0.8"/><text x="144" y="186" text-anchor="start" fill="#202020" font-family="Georgia, serif" font-size="8">Distance 1</text><rect x="275" y="177" width="41.2109375" height="11" fill="#ffffff" stroke="none" stroke-width="0.8"/><text x="277" y="186" text-anchor="start" fill="#202020" font-family="Georgia, serif" font-size="8">Distance 2</text></svg>
