<svg xmlns="http://www.w3.org/2000/svg" viewBox="0 0 354 205" role="img"><title>islands</title><rect width="100%" height="100%" fill="white"/><rect x="0" y="0" width="354" height="25" rx="5" fill="#182b42" stroke="none" stroke-width="0.8"/><text x="7" y="17" text-anchor="start" fill="#ffffff" font-family="Georgia, serif" font-weight="bold" font-size="8.5">FOUR-WAY NEIGHBORS GIVE TWO ISLANDS</text><line x1="125.0" y1="79.0" x2="141.0" y2="79.0" stroke="#555555" stroke-width="0.8"/><line x1="141.0" y1="79.0" x2="136.4977644882366" y2="76.82517232944386" stroke="#555555" stroke-width="0.8"/><line x1="141.0" y1="79.0" x2="136.4977644882366" y2="81.17482767055616" stroke="#555555" stroke-width="0.8"/><line x1="168.0" y1="95.0" x2="168.0" y2="107.0" stroke="#555555" stroke-width="0.8"/><line x1="168.0" y1="107.0" x2="170.17482767055614" y2="102.49776448823661" stroke="#555555" stroke-width="0.8"/><line x1="168.0" y1="107.0" x2="165.82517232944386" y2="102.49776448823661" stroke="#555555" stroke-width="0.8"/><rect x="71" y="63" width="54" height="32" rx="5" fill="#dde5ed" stroke="#555555" stroke-width="0.8"/><text x="98.0" y="82.0" text-anchor="middle" fill="#202020" font-family="Georgia, serif" font-weight="normal" font-size="9">1</text><rect x="141" y="63" width="54" height="32" rx="5" fill="#dde5ed" stroke="#555555" stroke-width="0.8"/><text x="168.0" y="82.0" text-anchor="middle" fill="#202020" font-family="Georgia, serif" font-weight="normal" font-size="9">1</text><rect x="211" y="63" width="54" height="32" rx="5" fill="#f8f9fb" stroke="#555555" stroke-width="0.8"/><text x="238.0" y="82.0" text-anchor="middle" fill="#202020" font-family="Georgia, serif" font-weight="normal" font-size="9">0</text><rect x="71" y="107" width="54" height="32" rx="5" fill="#f8f9fb" stroke="#555555" stroke-width="0.8"/><text x="98.0" y="126.0" text-anchor="middle" fill="#202020" font-family="Georgia, serif" font-weight="normal" font-size="9">0</text><rect x="141" y="107" width="54" height="32" rx="5" fill="#dde5ed" stroke="#555555" stroke-width="0.8"/><text x="168.0" y="126.0" text-anchor="middle" fill="#202020" font-family="Georgia, serif" font-weight="normal" font-size="9">1</text><rect x="211" y="107" width="54" height="32" rx="5" fill="#f8f9fb" stroke="#555555" stroke-width="0.8"/><text x="238.0" y="126.0" text-anchor="middle" fill="#202020" font-family="Georgia, serif" font-weight="normal" font-size="9">0</text><rect x="71" y="151" width="54" height="32" rx="5" fill="#f8f9fb" stroke="#555555" stroke-width="0.8"/><text x="98.0" y="170.0" text-anchor="middle" fill="#202020" font-family="Georgia, serif" font-weight="normal" font-size="9">0</text><rect x="141" y="151" width="54" height="32" rx="5" fill="#f8f9fb" stroke="#555555" stroke-width="0.8"/><text x="168.0" y="170.0" text-anchor="middle" fill="#202020" font-family="Georgia, serif" font-weight="normal" font-size="9">0</text><rect x="211" y="151" width="54" height="32" rx="5" fill="#dde5ed" stroke="#555555" stroke-width="0.8"/><text x="238.0" y="170.0" text-anchor="middle" fill="#202020" font-family="Georgia, serif" font-weight="normal" font-size="9">1</text><rect x="6" y="43" width="116.87890625" height="11" fill="#ffffff" stroke="none" stroke-width="0.8"/><text x="8" y="52" text-anchor="start" fill="#202020" font-family="Georgia, serif" font-weight="normal" font-size="8">Grid = [&quot;110&quot;, &quot;010&quot;, &quot;001&quot;]</text><rect x="6" y="192" width="143.109375" height="11" fill="#ffffff" stroke="none" stroke-width="0.8"/><text x="8" y="201" text-anchor="start" fill="#202020" font-family="Georgia, serif" font-weight="normal" font-size="8">Bottom-right 1 is a separate island</text></svg>
