<svg xmlns="http://www.w3.org/2000/svg" viewBox="0 0 354 200" role="img"><title>pubsub</title><rect width="100%" height="100%" fill="white"/><rect x="0" y="0" width="354" height="25" rx="5" fill="#182b42" stroke="none" stroke-width="0.8"/><text x="7" y="17" text-anchor="start" fill="#ffffff" font-family="Georgia, serif" font-weight="bold" font-size="8.5">COPY MEMBERSHIP, THEN UNLOCK AND CALL</text><line x1="166.0" y1="77.5" x2="188.0" y2="77.5" stroke="#555555" stroke-width="0.8"/><line x1="188.0" y1="77.5" x2="183.4977644882366" y2="75.32517232944384" stroke="#555555" stroke-width="0.8"/><line x1="188.0" y1="77.5" x2="183.4977644882366" y2="79.67482767055616" stroke="#555555" stroke-width="0.8"/><line x1="87.0" y1="99.0" x2="87.0" y2="135.0" stroke="#555555" stroke-width="0.8"/><line x1="87.0" y1="135.0" x2="89.17482767055616" y2="130.4977644882366" stroke="#555555" stroke-width="0.8"/><line x1="87.0" y1="135.0" x2="84.82517232944384" y2="130.4977644882366" stroke="#555555" stroke-width="0.8"/><line x1="267.0" y1="99.0" x2="267.0" y2="135.0" stroke="#555555" stroke-width="0.8"/><line x1="267.0" y1="135.0" x2="269.17482767055617" y2="130.4977644882366" stroke="#555555" stroke-width="0.8"/><line x1="267.0" y1="135.0" x2="264.82517232944383" y2="130.4977644882366" stroke="#555555" stroke-width="0.8"/><rect x="8" y="56" width="158" height="43" rx="5" fill="#f8f9fb" stroke="#555555" stroke-width="0.8"/><text x="87.0" y="74.5" text-anchor="middle" fill="#202020" font-family="Georgia, serif" font-weight="normal" font-size="9">Live registry</text><text x="87.0" y="86.5" text-anchor="middle" fill="#202020" font-family="Georgia, serif" font-weight="normal" font-size="9">[A, B]</text><rect x="188" y="56" width="158" height="43" rx="5" fill="#dde5ed" stroke="#555555" stroke-width="0.8"/><text x="267.0" y="74.5" text-anchor="middle" fill="#202020" font-family="Georgia, serif" font-weight="normal" font-size="9">Publish snapshot</text><text x="267.0" y="86.5" text-anchor="middle" fill="#202020" font-family="Georgia, serif" font-weight="normal" font-size="9">[A, B]</text><rect x="8" y="135" width="158" height="43" rx="5" fill="#f8f9fb" stroke="#555555" stroke-width="0.8"/><text x="87.0" y="153.5" text-anchor="middle" fill="#202020" font-family="Georgia, serif" font-weight="normal" font-size="9">A unsubscribes B</text><text x="87.0" y="165.5" text-anchor="middle" fill="#202020" font-family="Georgia, serif" font-weight="normal" font-size="9">registry now [A]</text><rect x="188" y="135" width="158" height="43" rx="5" fill="#dde5ed" stroke="#555555" stroke-width="0.8"/><text x="267.0" y="153.5" text-anchor="middle" fill="#202020" font-family="Georgia, serif" font-weight="normal" font-size="9">This publish still calls B</text><text x="267.0" y="165.5" text-anchor="middle" fill="#202020" font-family="Georgia, serif" font-weight="normal" font-size="9">snapshot unchanged</text></svg>
