<svg xmlns="http://www.w3.org/2000/svg" viewBox="0 0 354 165" role="img"><title>two-sum</title><rect width="100%" height="100%" fill="white"/><rect x="0" y="0" width="354" height="25" rx="5" fill="#182b42" stroke="none" stroke-width="0.8"/><text x="7" y="17" text-anchor="start" fill="#ffffff" font-family="Georgia, serif" font-weight="bold" font-size="8.5">TWO SUM: CURRENT VALUE ASKS ABOUT THE PAST</text><line x1="166.0" y1="96.46268656716418" x2="226.8923076923077" y2="126.0" stroke="#555555" stroke-width="0.8"/><line x1="226.8923076923077" y1="126.0" x2="223.79067030656415" y2="122.07828538425372" stroke="#555555" stroke-width="0.8"/><line x1="226.8923076923077" y1="126.0" x2="221.8923143849751" y2="125.9918191302989" stroke="#555555" stroke-width="0.8"/><line x1="182.0" y1="144.0" x2="153.0" y2="144.0" stroke="#555555" stroke-width="0.8"/><line x1="153.0" y1="144.0" x2="157.5022355117634" y2="146.17482767055614" stroke="#555555" stroke-width="0.8"/><line x1="153.0" y1="144.0" x2="157.5022355117634" y2="141.82517232944386" stroke="#555555" stroke-width="0.8"/><rect x="8" y="59" width="72" height="40" rx="5" fill="#dde5ed" stroke="#555555" stroke-width="0.8"/><text x="44.0" y="76.0" text-anchor="middle" fill="#202020" font-family="Georgia, serif" font-weight="normal" font-size="9">index 0</text><text x="44.0" y="88.0" text-anchor="middle" fill="#202020" font-family="Georgia, serif" font-weight="normal" font-size="9">value 2</text><rect x="94" y="59" width="72" height="40" rx="5" fill="#dde5ed" stroke="#555555" stroke-width="0.8"/><text x="130.0" y="76.0" text-anchor="middle" fill="#202020" font-family="Georgia, serif" font-weight="normal" font-size="9">index 1</text><text x="130.0" y="88.0" text-anchor="middle" fill="#202020" font-family="Georgia, serif" font-weight="normal" font-size="9">value 7</text><rect x="180" y="59" width="72" height="40" rx="5" fill="#f8f9fb" stroke="#555555" stroke-width="0.8"/><text x="216.0" y="76.0" text-anchor="middle" fill="#202020" font-family="Georgia, serif" font-weight="normal" font-size="9">index 2</text><text x="216.0" y="88.0" text-anchor="middle" fill="#202020" font-family="Georgia, serif" font-weight="normal" font-size="9">value 11</text><rect x="266" y="59" width="80" height="40" rx="5" fill="#f8f9fb" stroke="#555555" stroke-width="0.8"/><text x="306.0" y="76.0" text-anchor="middle" fill="#202020" font-family="Georgia, serif" font-weight="normal" font-size="9">index 3</text><text x="306.0" y="88.0" text-anchor="middle" fill="#202020" font-family="Georgia, serif" font-weight="normal" font-size="9">value 15</text><rect x="8" y="126" width="145" height="36" rx="5" fill="#f8f9fb" stroke="#555555" stroke-width="0.8"/><text x="80.5" y="147.0" text-anchor="middle" fill="#202020" font-family="Georgia, serif" font-weight="normal" font-size="9">earlier = {2: 0}</text><rect x="182" y="126" width="164" height="36" rx="5" fill="#dde5ed" stroke="#555555" stroke-width="0.8"/><text x="264.0" y="141.0" text-anchor="middle" fill="#202020" font-family="Georgia, serif" font-weight="normal" font-size="9">9 - 7 = 2</text><text x="264.0" y="153.0" text-anchor="middle" fill="#202020" font-family="Georgia, serif" font-weight="normal" font-size="9">found at index 0</text></svg>
