<svg xmlns="http://www.w3.org/2000/svg" viewBox="0 0 354 205" role="img"><title>weighted-cache</title><rect width="100%" height="100%" fill="white"/><rect x="0" y="0" width="354" height="25" rx="5" fill="#182b42" stroke="none" stroke-width="0.8"/><text x="7" y="17" text-anchor="start" fill="#ffffff" font-family="Georgia, serif" font-weight="bold" font-size="8.5">ONE WEIGHTED OVERWRITE CAN EVICT TWICE</text><line x1="177.0" y1="96.0" x2="177.0" y2="111.0" stroke="#555555" stroke-width="0.8"/><line x1="177.0" y1="111.0" x2="179.17482767055614" y2="106.49776448823661" stroke="#555555" stroke-width="0.8"/><line x1="177.0" y1="111.0" x2="174.82517232944386" y2="106.49776448823661" stroke="#555555" stroke-width="0.8"/><line x1="144.85714285714286" y1="151.0" x2="115.92857142857143" y2="169.0" stroke="#555555" stroke-width="0.8"/><line x1="115.92857142857143" y1="169.0" x2="120.90018978338132" y2="168.46801228010665" stroke="#555555" stroke-width="0.8"/><line x1="115.92857142857143" y1="169.0" x2="118.60225865977483" y2="164.7749086885962" stroke="#555555" stroke-width="0.8"/><line x1="166.0" y1="187.0" x2="187.0" y2="187.0" stroke="#555555" stroke-width="0.8"/><line x1="187.0" y1="187.0" x2="182.4977644882366" y2="184.82517232944386" stroke="#555555" stroke-width="0.8"/><line x1="187.0" y1="187.0" x2="182.4977644882366" y2="189.17482767055614" stroke="#555555" stroke-width="0.8"/><rect x="8" y="56" width="338" height="40" rx="5" fill="#f8f9fb" stroke="#555555" stroke-width="0.8"/><text x="177.0" y="79.0" text-anchor="middle" fill="#202020" font-family="Georgia, serif" font-weight="normal" font-size="9">Before: [C:2, B:3, A:4]     used = 9</text><rect x="8" y="111" width="338" height="40" rx="5" fill="#dde5ed" stroke="#555555" stroke-width="0.8"/><text x="177.0" y="134.0" text-anchor="middle" fill="#202020" font-family="Georgia, serif" font-weight="normal" font-size="9">Update A: [A:9, C:2, B:3]     used = 14</text><rect x="8" y="169" width="158" height="36" rx="5" fill="#f8f9fb" stroke="#555555" stroke-width="0.8"/><text x="87.0" y="190.0" text-anchor="middle" fill="#202020" font-family="Georgia, serif" font-weight="normal" font-size="9">Evict B: used = 11</text><rect x="187" y="169" width="159" height="36" rx="5" fill="#dde5ed" stroke="#555555" stroke-width="0.8"/><text x="266.5" y="190.0" text-anchor="middle" fill="#202020" font-family="Georgia, serif" font-weight="normal" font-size="9">Evict C: used = 9</text></svg>
